<svg class="svg-icon" style="width: 1em; height: 1em;vertical-align: middle;fill: currentColor;overflow: hidden;" viewBox="0 0 1024 1024" version="1.1" xmlns="http://www.w3.org/2000/svg"><path d="M512 277.6c-129.714286 0-234.4 104.685714-234.4 234.4S382.285714 746.4 512 746.4 746.4 641.714286 746.4 512 641.714286 277.6 512 277.6z m0 386.742857c-83.885714 0-152.342857-68.457143-152.342857-152.342857S428.114286 359.657143 512 359.657143 664.342857 428.114286 664.342857 512 595.885714 664.342857 512 664.342857z m244-450.971428c-30.285714 0-54.742857 24.457143-54.742857 54.742857s24.457143 54.742857 54.742857 54.742857 54.742857-24.342857 54.742857-54.742857a54.674286 54.674286 0 0 0-54.742857-54.742857zM968.914286 512c0-63.085714 0.571429-125.6-2.971429-188.571429-3.542857-73.142857-20.228571-138.057143-73.714286-191.542857-53.6-53.6-118.4-70.171429-191.542857-73.714285-63.085714-3.542857-125.6-2.971429-188.571428-2.971429-63.085714 0-125.6-0.571429-188.571429 2.971429-73.142857 3.542857-138.057143 20.228571-191.542857 73.714285C78.4 185.485714 61.828571 250.285714 58.285714 323.428571c-3.542857 63.085714-2.971429 125.6-2.971428 188.571429s-0.571429 125.6 2.971428 188.571429c3.542857 73.142857 20.228571 138.057143 73.714286 191.542857 53.6 53.6 118.4 70.171429 191.542857 73.714285 63.085714 3.542857 125.6 2.971429 188.571429 2.971429 63.085714 0 125.6 0.571429 188.571428-2.971429 73.142857-3.542857 138.057143-20.228571 191.542857-73.714285 53.6-53.6 70.171429-118.4 73.714286-191.542857 3.657143-62.971429 2.971429-125.485714 2.971429-188.571429z m-100.571429 269.485714c-8.342857 20.8-18.4 36.342857-34.514286 52.342857-16.114286 16.114286-31.542857 26.171429-52.342857 34.514286C721.371429 892.228571 578.628571 886.857143 512 886.857143c-66.628571 0-209.485714 5.371429-269.6-18.4-20.8-8.342857-36.342857-18.4-52.342857-34.514286-16.114286-16.114286-26.171429-31.542857-34.514286-52.342857C131.771429 721.371429 137.142857 578.628571 137.142857 512c0-66.628571-5.371429-209.485714 18.4-269.6 8.342857-20.8 18.4-36.342857 34.514286-52.342857s31.542857-26.171429 52.342857-34.514286C302.514286 131.771429 445.371429 137.142857 512 137.142857s209.485714-5.371429 269.6 18.4c20.8 8.342857 36.342857 18.4 52.342857 34.514286 16.114286 16.114286 26.171429 31.542857 34.514286 52.342857C892.228571 302.514286 886.857143 445.371429 886.857143 512c0 66.628571 5.371429 209.371429-18.514286 269.485714z"  /></svg>