<svg class="svg-icon" style="width: 1em; height: 1em;vertical-align: middle;fill: currentColor;overflow: hidden;" viewBox="0 0 1024 1024" version="1.1" xmlns="http://www.w3.org/2000/svg"><path d="M909.822564 269.615601c-29.139667 12.926404-60.483536 21.665439-93.362364 25.603121 33.54807-20.13048 59.322084-51.968605 71.476915-89.924055-31.42164 18.62008-66.206888 32.162514-103.216803 39.443337-29.661553-31.593556-71.89954-51.325969-118.645191-51.325969-89.773629 0-162.540933 72.76628-162.540933 162.540933 0 12.749372 1.435699 25.15389 4.208858 37.036521-135.083581-6.780427-254.867712-71.503521-335.036589-169.842223-13.987572 24.015973-22.00927 51.916417-22.00927 81.729419 0 56.398498 28.694529 106.137319 72.318072 135.303592-26.637684-0.841158-51.692313-8.143471-73.629951-20.322861-0.025583 0.668219-0.025583 1.357927-0.025583 2.052752 0 78.757738 56.027038 144.443763 130.377396 159.370731-13.638625 3.713578-28.000728 5.697769-42.829458 5.697769-10.476609 0-20.651342-1.01819-30.579459-2.923586 20.671809 64.571644 80.715323 111.563912 151.847383 112.873744-55.635111 43.602054-125.727493 69.571519-201.88501 69.571519-13.120832 0-26.047236-0.76748-38.771025-2.276856 71.926146 46.128597 157.36505 73.03848 249.174036 73.03848 298.982442 0 462.467887-247.686149 462.467887-462.493469 0-7.05672-0.151449-14.060227-0.470721-21.017686 31.766494-22.929222 59.323107-51.551096 81.108273-84.133166L909.822564 269.617647 909.822564 269.615601zM909.822564 269.615601"  /></svg>